<?xml version="1.0" encoding="UTF-8" standalone="no"?>
<svg xmlns="http://www.w3.org/2000/svg" viewBox="0 0 100 100" version="1.1">
  <circle r="50" cy="50" cx="50" style="fill:#e6e6e6;stroke:none" />
  <g style="fill:#4bae44">
    <path d="m 14.456113,70.641828 v -2.342544 h 1.672955 v 2.342544 h 1.375812 v 1.357203 h -1.375812 v 4.00009 c 0,0.37826 0.188694,0.489035 0.605334,0.489035 0.252949,0 0.529449,-0.08054 0.770478,-0.133453 v 1.386859 c -0.460543,0.05437 -0.866134,0.109904 -1.324932,0.109904 -1.23887,0 -1.723835,-0.625687 -1.723835,-1.634287 v -4.218148 h -0.973709 v -1.357203 z" />
    <path d="m 19.99425,74.453513 c 0.02907,1.465652 0.680056,2.034643 1.461872,2.034643 0.781527,0 1.144669,-0.355583 1.559273,-0.846073 l 1.218809,0.765535 c -0.650109,1.00889 -1.590964,1.443848 -2.942644,1.443848 -1.82327,0 -2.967066,-1.430472 -2.967066,-3.673581 0,-2.247469 1.143796,-3.674744 3.042079,-3.674744 1.839842,-0.0125 2.867631,1.554912 2.867631,3.25229 v 0.69779 H 19.99425 Z m 2.701906,-1.147868 c -0.02646,-0.978943 -0.539916,-1.548514 -1.350517,-1.548514 -0.812055,0 -1.322605,0.569571 -1.35168,1.548514 z" />
    <path d="M 29.679301,72.937852 C 29.406872,72.334263 29.112928,71.8618 28.296221,71.8618 c -0.932133,0 -1.376684,0.738786 -1.376684,2.316376 0,1.573519 0.444551,2.30998 1.435706,2.30998 0.730064,0 1.146994,-0.507643 1.483097,-1.123735 l 1.271143,0.719016 c -0.676567,1.261838 -1.527,1.778495 -2.813262,1.768319 -1.898574,0 -3.041497,-1.430472 -3.041497,-3.67358 0,-2.247469 1.142923,-3.674743 3.041497,-3.674743 1.329292,0 2.377433,0.706513 2.773139,1.892177 z" />
    <path d="m 32.349516,77.715106 v -9.823447 h 1.672082 v 3.50611 c 0.514621,-0.430014 1.19962,-0.894336 2.020397,-0.894336 1.40663,0 2.083779,0.925736 2.083779,2.366966 v 4.844997 h -1.673246 v -4.594374 c 0,-0.956264 -0.298596,-1.259513 -0.863225,-1.259513 -0.725703,0 -1.28132,0.422455 -1.567705,0.747218 v 5.106379 z" />
    <path d="m 39.85019,77.715106 v -7.073278 h 1.540084 v 0.755941 c 0.623069,-0.430014 1.334816,-0.894336 2.161699,-0.894336 1.40256,0 2.075638,0.925736 2.075638,2.366966 v 4.844997 h -1.670338 v -4.594374 c 0,-0.956264 -0.299759,-1.259513 -0.867878,-1.259513 -0.726866,0 -1.283063,0.422455 -1.561017,0.747218 v 5.106379 z" />
    <path d="m 49.863204,70.503433 c 1.907587,0 3.052837,1.426983 3.052837,3.674743 0,2.243108 -1.14525,3.67358 -3.052837,3.67358 -1.90468,0 -3.04644,-1.430472 -3.04644,-3.67358 0,-2.24776 1.142051,-3.674743 3.04644,-3.674743 z m 0,1.358075 c -0.930679,0 -1.374067,0.738788 -1.374067,2.316377 0,1.57352 0.443097,2.309979 1.374067,2.309979 0.936203,0 1.377265,-0.736459 1.377265,-2.309979 0,-1.577589 -0.440771,-2.316377 -1.377265,-2.316377 z" />
    <path d="m 54.282548,77.715106 v -9.823447 h 1.668884 v 7.356753 2.466694 z" />
    <path d="m 60.364381,70.503433 c 1.90526,0 3.051673,1.426983 3.051673,3.674743 0,2.243108 -1.146413,3.67358 -3.051673,3.67358 -1.90468,0 -3.047604,-1.430472 -3.047604,-3.67358 0,-2.24776 1.142924,-3.674743 3.047604,-3.674743 z m 0,1.358075 c -0.930098,0 -1.375231,0.738788 -1.375231,2.316377 0,1.57352 0.445133,2.309979 1.375231,2.309979 0.935331,0 1.380463,-0.736459 1.380463,-2.309979 0,-1.577589 -0.445132,-2.316377 -1.380463,-2.316377 z" />
    <path d="m 70.323024,71.645194 c -0.388437,0 -0.81816,0 -1.080704,0.163981 0.220386,0.298596 0.381169,0.706514 0.381169,1.254861 0,1.328129 -0.895499,2.28294 -2.647246,2.28294 -0.725121,0 -1.305451,0.02617 -1.305451,0.432631 0,1.142633 4.615598,-0.406463 4.615598,2.42308 0,1.003366 -1.015867,2.094828 -3.254323,2.094828 -1.88927,0 -3.129013,-0.569573 -3.129013,-1.688946 0,-0.882415 0.659995,-1.303125 1.261258,-1.303125 v -0.03053 c -0.319821,-0.202069 -1.034185,-0.378261 -1.034185,-1.142634 0,-0.679183 0.780945,-1.196421 1.090299,-1.291204 -0.577422,-0.473044 -1.035348,-1.013542 -1.035348,-1.874442 0,-1.239742 0.939111,-2.463494 2.767324,-2.463494 0.591087,0 1.295275,0.248588 1.722963,0.626849 0.328834,-0.434956 0.850724,-0.655923 1.64795,-0.626849 v 1.142052 z m -4.886573,6.749675 c 0,0.5373 0.462868,0.785307 1.86601,0.785307 1.077215,0 1.447626,-0.541079 1.447626,-0.785307 0,-0.328834 -0.502701,-0.81816 -2.125065,-0.81816 -0.912944,0 -1.188571,0.515494 -1.188571,0.81816 z m 1.499379,-6.637738 c -0.713201,0 -1.215902,0.517238 -1.215902,1.168218 0,0.653016 0.502701,1.173162 1.215902,1.173162 0.63499,0 1.144377,-0.520145 1.144377,-1.173162 -2.91e-4,-0.650981 -0.509678,-1.168218 -1.144377,-1.168218 z" />
    <path d="m 71.526424,69.335213 v -1.581369 h 1.668884 v 0.710584 0.870785 z m 1.668884,6.300764 v 2.079128 h -1.668884 v -7.073278 h 1.668884 z" />
    <path d="m 76.234479,74.453513 c 0.025,1.465652 0.674532,2.034643 1.457802,2.034643 0.784143,0 1.143797,-0.355583 1.569449,-0.846073 l 1.211831,0.765535 c -0.651272,1.009181 -1.59329,1.444137 -2.945551,1.444137 -1.821235,0 -2.967648,-1.430472 -2.967648,-3.67358 0,-2.247469 1.146413,-3.674743 3.048766,-3.674743 1.839843,-0.0125 2.864433,1.554912 2.864433,3.252289 v 0.697791 z m 2.700162,-1.147868 c -0.03344,-0.978943 -0.542242,-1.548514 -1.351971,-1.548514 -0.807403,0 -1.323187,0.569571 -1.348191,1.548514 z" />
    <path d="m 85.261863,72.502313 c -0.334359,-0.364596 -0.785306,-0.745182 -1.310685,-0.745182 -0.650109,0 -0.940274,0.270976 -0.940274,0.692267 0,1.212413 3.506692,0.688778 3.506692,3.279328 0,1.466234 -1.109488,2.12274 -2.581537,2.12274 -1.116466,0 -2.034061,-0.506481 -2.655968,-1.430472 L 82.4015,75.576666 c 0.391345,0.544568 0.914397,1.018775 1.634867,1.018775 0.594576,0 0.996678,-0.325345 0.996678,-0.804204 0,-1.204562 -3.508727,-0.767861 -3.508727,-3.235135 0,-1.31679 1.106872,-2.05296 2.319284,-2.05296 0.933587,0 1.860777,0.351513 2.47367,1.076634 z" />
    <path d="m 82.35847,60.789307 c -1.237417,0 -2.093083,-0.869332 -2.093083,-2.146581 0,-1.277248 0.869913,-2.161408 2.093083,-2.161408 1.236835,0 2.092501,0.86875 2.092501,2.161408 0,1.277249 -0.869913,2.146581 -2.092501,2.146581 z m 0,-4.049806 c -0.991445,0 -1.794487,0.679765 -1.794487,1.903516 0,1.211249 0.803042,1.88927 1.794487,1.88927 1.003947,0 1.808733,-0.678021 1.808733,-1.88927 -2.91e-4,-1.223751 -0.817288,-1.903516 -1.808733,-1.903516 z m 0.625104,3.045277 -0.72076,-1.019357 h -0.231725 v 0.97778 h -0.406463 v -2.365803 h 0.720179 c 0.502119,0 0.842582,0.245972 0.842582,0.694593 0,0.340174 -0.189566,0.557652 -0.489616,0.651854 l 0.680346,0.965278 z M 82.344805,57.745773 H 82.03138 v 0.707095 h 0.300922 c 0.270976,0 0.433794,-0.122112 0.433794,-0.352674 0,-0.231725 -0.150025,-0.35442 -0.421291,-0.354421 z" />
    <path d="M 77.401244,54.751376 V 33.790019 c 0,-5.094748 -0.960916,-7.924582 -3.686663,-10.413953 -2.59055,-2.365221 -6.816549,-3.67358 -12.536111,-3.67358 -5.518365,0 -10.194439,1.311266 -13.557793,3.82186 3.015912,2.415812 5.017119,5.966987 5.407882,10.628234 0,-3.96549 2.71906,-5.589599 6.792126,-5.589599 4.560647,0 5.884706,3.183964 5.924538,5.855341 l 0.03285,1.273178 c -12.611705,0.619581 -24.491891,2.96445 -24.262493,14.498939 0.160783,8.084203 7.477706,11.385627 12.500349,11.380103 5.841094,-0.0067 9.109665,-1.563924 12.317469,-5.548022 0.04943,1.683131 0.262835,3.465114 0.554163,4.754285 h 11.30509 c -0.632368,-1.982309 -0.791407,-3.9652 -0.791407,-6.025429 z M 64.190893,50.618417 c -1.348191,2.060229 -3.487212,3.329918 -5.868424,3.329918 -3.249381,0 -5.959719,-1.477573 -5.959719,-5.014212 0,-5.195928 7.600982,-7.043911 13.415328,-7.378851 v 1.537757 c 0,3.374403 -0.05786,5.195929 -1.587185,7.525388 z" />
  </g>
  <path fill="#0084CB"
     d="m 41.515585,50.190148 c -0.01774,-0.883578 0.03634,-1.713949 0.15555,-2.49286 -0.527414,2.91764 -2.859491,4.365848 -5.803297,4.365848 -5.873949,0 -7.516957,-4.416728 -7.516957,-11.984274 0,-7.456481 1.76832,-11.496692 7.4873,-11.496692 3.551758,0 6.121374,1.921542 6.121374,5.569537 H 53.028269 C 52.226972,24.592839 44.65332,19.702486 35.442476,19.702486 c -12.689043,0 -20.142035,8.959057 -20.142035,21.330316 0,11.892106 7.215161,20.537448 19.427089,20.537448 3.557573,0 7.589352,-0.863225 10.835245,-2.949621 -2.285557,-1.839843 -3.971014,-4.597282 -4.04719,-8.430481 z" />
</svg>
